<?xml version="1.0" encoding="UTF-8"?>
<svg width="500" height="350" viewBox="0 0 500 350" fill="none" xmlns="http://www.w3.org/2000/svg">
  <rect width="500" height="350" rx="8" fill="#F5F7FA"/>
  <rect x="80" y="50" width="340" height="240" rx="8" fill="#434A54"/>
  <rect x="90" y="60" width="320" height="220" rx="4" fill="#4A89DC" fill-opacity="0.1"/>
  
  <!-- Chalkboard Frame -->
  <rect x="100" y="70" width="300" height="200" rx="2" fill="#4A89DC" fill-opacity="0.2"/>
  <rect x="105" y="75" width="290" height="190" rx="2" fill="#434A54"/>
  
  <!-- Chalk Writing -->
  <path d="M150 130C150 127.791 151.791 126 154 126H346C348.209 126 350 127.791 350 130V140C350 142.209 348.209 144 346 144H154C151.791 144 150 142.209 150 140V130Z" fill="#4A89DC" fill-opacity="0.1"/>
  
  <text x="220" y="138" font-family="'Vazirmatn', sans-serif" font-size="14" fill="white" font-weight="bold" text-anchor="middle">به آموزگار خوش آمدید</text>
  
  <!-- Math Symbols -->
  <path d="M130 180H160M145 165V195" stroke="white" stroke-opacity="0.6" stroke-width="2" stroke-linecap="round"/>
  <path d="M320 180H350" stroke="white" stroke-opacity="0.6" stroke-width="2" stroke-linecap="round"/>
  <path d="M180 200L200 180M180 180L200 200" stroke="white" stroke-opacity="0.6" stroke-width="2" stroke-linecap="round"/>
  
  <!-- Formulas -->
  <path d="M230 180H270" stroke="white" stroke-opacity="0.6" stroke-width="1" stroke-linecap="round"/>
  <path d="M230 190H250" stroke="white" stroke-opacity="0.6" stroke-width="1" stroke-linecap="round"/>
  <path d="M230 170H260" stroke="white" stroke-opacity="0.6" stroke-width="1" stroke-linecap="round"/>
  
  <!-- Eraser marks -->
  <path d="M280 220C280 220 290 210 300 220C310 230 320 220 320 220" stroke="white" stroke-opacity="0.2" stroke-width="4" stroke-linecap="round"/>
  
  <!-- Chalk pieces -->
  <rect x="105" y="280" width="20" height="5" rx="2.5" fill="white" fill-opacity="0.8"/>
  <rect x="135" y="280" width="15" height="5" rx="2.5" fill="white" fill-opacity="0.8"/>
  <rect x="160" y="280" width="10" height="5" rx="2.5" fill="#FFCE54" fill-opacity="0.8"/>
  
  <!-- Eraser -->
  <rect x="350" y="275" width="25" height="15" rx="2" fill="#ED5565" fill-opacity="0.8"/>
  <rect x="350" y="270" width="25" height="5" rx="1" fill="#AAB2BD" fill-opacity="0.8"/>
</svg>