<?xml version="1.0" encoding="UTF-8"?>
<svg width="200" height="200" viewBox="0 0 200 200" fill="none" xmlns="http://www.w3.org/2000/svg">
  <g opacity="0.8">
    <path d="M20 40L30 50L20 60L10 50L20 40Z" fill="white"/>
    <path d="M60 20L70 30L60 40L50 30L60 20Z" fill="white"/>
    <path d="M100 40L110 50L100 60L90 50L100 40Z" fill="white"/>
    <path d="M140 20L150 30L140 40L130 30L140 20Z" fill="white"/>
    <path d="M180 40L190 50L180 60L170 50L180 40Z" fill="white"/>
    <path d="M20 100L30 110L20 120L10 110L20 100Z" fill="white"/>
    <path d="M60 80L70 90L60 100L50 90L60 80Z" fill="white"/>
    <path d="M100 100L110 110L100 120L90 110L100 100Z" fill="white"/>
    <path d="M140 80L150 90L140 100L130 90L140 80Z" fill="white"/>
    <path d="M180 100L190 110L180 120L170 110L180 100Z" fill="white"/>
    <path d="M20 160L30 170L20 180L10 170L20 160Z" fill="white"/>
    <path d="M60 140L70 150L60 160L50 150L60 140Z" fill="white"/>
    <path d="M100 160L110 170L100 180L90 170L100 160Z" fill="white"/>
    <path d="M140 140L150 150L140 160L130 150L140 140Z" fill="white"/>
    <path d="M180 160L190 170L180 180L170 170L180 160Z" fill="white"/>
    
    <path d="M45 30L40 35L45 40L50 35L45 30Z" fill="white"/>
    <path d="M85 30L80 35L85 40L90 35L85 30Z" fill="white"/>
    <path d="M125 30L120 35L125 40L130 35L125 30Z" fill="white"/>
    <path d="M165 30L160 35L165 40L170 35L165 30Z" fill="white"/>
    
    <path d="M45 70L40 75L45 80L50 75L45 70Z" fill="white"/>
    <path d="M85 70L80 75L85 80L90 75L85 70Z" fill="white"/>
    <path d="M125 70L120 75L125 80L130 75L125 70Z" fill="white"/>
    <path d="M165 70L160 75L165 80L170 75L165 70Z" fill="white"/>
    
    <path d="M45 110L40 115L45 120L50 115L45 110Z" fill="white"/>
    <path d="M85 110L80 115L85 120L90 115L85 110Z" fill="white"/>
    <path d="M125 110L120 115L125 120L130 115L125 110Z" fill="white"/>
    <path d="M165 110L160 115L165 120L170 115L165 110Z" fill="white"/>
    
    <path d="M45 150L40 155L45 160L50 155L45 150Z" fill="white"/>
    <path d="M85 150L80 155L85 160L90 155L85 150Z" fill="white"/>
    <path d="M125 150L120 155L125 160L130 155L125 150Z" fill="white"/>
    <path d="M165 150L160 155L165 160L170 155L165 150Z" fill="white"/>
    
    <!-- Education symbols -->
    <path d="M30 65C32.7614 65 35 62.7614 35 60C35 57.2386 32.7614 55 30 55C27.2386 55 25 57.2386 25 60C25 62.7614 27.2386 65 30 65Z" fill="white"/>
    <path d="M30 55V60L35 62" stroke="white" stroke-width="1.5" stroke-linecap="round"/>
    
    <path d="M70 45H90V65H70V45Z" stroke="white" stroke-width="1.5"/>
    <path d="M75 50H85M75 55H85M75 60H80" stroke="white" stroke-width="1.5" stroke-linecap="round"/>
    
    <path d="M120 60L110 70V50L120 60Z" fill="white"/>
    
    <path d="M160 60C160 56.6863 162.686 54 166 54C169.314 54 172 56.6863 172 60C172 63.3137 169.314 66 166 66C162.686 66 160 63.3137 160 60Z" stroke="white" stroke-width="1.5"/>
    <path d="M166 57V63M163 60H169" stroke="white" stroke-width="1.5" stroke-linecap="round"/>
    
    <path d="M20 125L30 115H40L30 125H20Z" fill="white"/>
    <path d="M20 125V135L30 125V115" stroke="white" stroke-width="1.5" stroke-linejoin="round"/>
    
    <path d="M70 120L60 110H80L70 120Z" stroke="white" stroke-width="1.5" stroke-linejoin="round"/>
    <path d="M70 120V130" stroke="white" stroke-width="1.5" stroke-linecap="round"/>
    
    <path d="M115 115H125V130H115V115Z" stroke="white" stroke-width="1.5"/>
    <path d="M105 115H115V130H105V115Z" stroke="white" stroke-width="1.5"/>
    
    <path d="M155 115H165C167.761 115 170 117.239 170 120V125C170 127.761 167.761 130 165 130H155V115Z" stroke="white" stroke-width="1.5"/>
    
    <path d="M30 175L25 165H35L30 175Z" stroke="white" stroke-width="1.5" stroke-linejoin="round"/>
    <path d="M25 165L20 155H40L35 165" stroke="white" stroke-width="1.5" stroke-linejoin="round"/>
    
    <path d="M75 175C78.3137 175 81 172.314 81 169C81 165.686 78.3137 163 75 163C71.6863 163 69 165.686 69 169C69 172.314 71.6863 175 75 175Z" stroke="white" stroke-width="1.5"/>
    <path d="M69 175L81 163" stroke="white" stroke-width="1.5"/>
    
    <path d="M115 165H125V175H115V165Z" fill="white"/>
    <path d="M105 155H125V165H105V155Z" fill="white"/>
    
    <path d="M155 165H165C167.761 165 170 162.761 170 160V155" stroke="white" stroke-width="1.5" stroke-linecap="round"/>
    <path d="M155 155H165C167.761 155 170 157.239 170 160V165" stroke="white" stroke-width="1.5" stroke-linecap="round"/>
  </g>
</svg>